{"title":"Tomorrowland.2015.HD-TS.XVID.AC3.HQ.Hive-CM8","uid":12154763,"size":1930679398,"categoryP":"video","categoryS":"movies","magnet":"?xt=urn:btih:f995aa4db72920d5c123e80abb7d54ccc8dc33d2&amp;dn=Tomorrowland.2015.HD-TS.XVID.AC3.HQ.Hive-CM8&amp;tr=udp%3A%2F%2Ftracker.openbittorrent.com%3A80&amp;tr=udp%3A%2F%2Fopen.demonii.com%3A1337&amp;tr=udp%3A%2F%2Ftracker.coppersurfer.tk%3A6969&amp;tr=udp%3A%2F%2Fexodus.desync.com%3A6969","seeders":0,"leechers":0,"uploader":"TvTeam","files":4,"time":1437750348,"description":"------------------------------------------------------------------------\n\n &lt;a href=&quot; https://www.torrenting.com&quot; rel=&quot;nofollow&quot; target=&quot;_NEW&quot;&gt; https://www.torrenting.com&lt;/a&gt;\n\nSign up is OPEN - for time being. Come and have fun\n\n.......................................................................................................................[center][img]http://img911.imageshack.us/img911/1720/aFMpxR.jpg[/img]\n\n\n[color=blue][size=4][b]Tomorrowland.2015.HD-TS.XVID.AC3.HQ.Hive-CM8[/b][/size][/color]\n\nThx Hive\n\nCM8 Doing It Right The First Time\n\nSources:\nVideo: 1080p HDCAM from Incoming (big thx)\nAudio: Line from Mr.Seen-Simple\nthx guys\n\nNotes:\nnot a day 1 release,lol, but it was needed\nThe versions out so far were far from great, the last one was at least watchable-ish but half the screen was cropped, cant enjoy a movie like this.\nIncoming was so nice to get me a perfect new cam for this, full-widescreen, nothing is cropped from any side.\nno movements,no focus issues, you cant do a better cam than this.\nso instead of reproducing same thing that already been done i work on this new source so you guys have new thing and got it pretty sexy &lt;&lt;&lt;&lt;&lt;&lt; :lol:\n\nEncode:\nquality was already very very nice, some flicker here and there which i removed as needed, adjusted colours and removed some noise in the video.\nDid avi the usual size and 720p mkv for the quality hunters\nAudio is the Line from Mr.Seen-Simple which i cleaned the usual way and lipsynced it to my videos.\n\nit wont get better than this, will do me till retail\nenjoy\n\nVideo: 720x384@bitrate 1800 2pass\nAudio: Line AC3 2.0 Stereo\nSample:yes included\n\nPS:\nQuality: Video:10, Audio:9\n\n\n &lt;a href=&quot;\nhttp://www.imdb.com/title/tt1964418/&quot; rel=&quot;nofollow&quot; target=&quot;_NEW&quot;&gt;\nhttp://www.imdb.com/title/tt1964418/&lt;/a&gt;\n\n\nGeneral\nComplete name                  : Tomorrowland.2015.HD-TS.XVID.AC3.HQ.Hive-CM8.avi\nFormat                         : AVI\nFormat/Info                    : Audio Video Interleave\nFile size                      : 1.75 GiB\nDuration                       : 2h 1mn\nOverall bit rate               : 2 066 Kbps\nWriting application            : Nandub v1.0rc2\nWriting library                : Nandub build 1853/release\n\nVideo\nID                             : 0\nFormat                         : MPEG-4 Visual\nFormat profile                 : Advanced Simple@L5\nFormat settings, BVOP          : 2\nFormat settings, QPel          : Yes\nFormat settings, GMC           : No warppoints\nFormat settings, Matrix        : Default (H.263)\nMuxing mode                    : Packed bitstream\nCodec ID                       : XVID\nCodec ID/Hint                  : XviD\nDuration                       : 2h 1mn\nBit rate                       : 1 798 Kbps\nWidth                          : 720 pixels\nHeight                         : 384 pixels\nDisplay aspect ratio           : 1.85:1\nFrame rate                     : 30.000 fps\nColor space                    : YUV\nChroma subsampling             : 4:2:0\nBit depth                      : 8 bits\nScan type                      : Progressive\nCompression mode               : Lossy\nBits/(Pixel*Frame)             : 0.217\nStream size                    : 1.53 GiB (87%)\nWriting library                : XviD 1.2.1 (UTC 2008-12-04)\n\nAudio\nID                             : 1\nFormat                         : AC-3\nFormat/Info                    : Audio Coding 3\nMode extension                 : CM (complete main)\nFormat settings, Endianness    : Big\nCodec ID                       : 2000\nDuration                       : 2h 1mn\nBit rate mode                  : Constant\nBit rate                       : 256 Kbps\nChannel(s)                     : 2 channels\nChannel positions              : Front: L R\nSampling rate                  : 48.0 KHz\nBit depth                      : 16 bits\nCompression mode               : Lossy\nDelay relative to video        : 1ms\nStream size                    : 222 MiB (12%)\nAlignment                      : Split accross interleaves\nInterleave, duration           : 33 ms (1.00 video frame)\nInterleave, preload duration   : 500 ms\n\n\n\nScreens \n\n[img]http://img673.imageshack.us/img673/3976/z6wkKY.png[/img]\n[img]http://img537.imageshack.us/img537/6053/TthIMF.png[/img]\n[img]http://img540.imageshack.us/img540/8184/DxymmC.png[/img]\n[img]http://img673.imageshack.us/img673/2817/7E4DQ1.png[/img]\n[img]http://img540.imageshack.us/img540/5200/uTCIMN.png[/img]\n[img]http://img911.imageshack.us/img911/1529/uW5Vaj.png[/img]\n[img]http://img911.imageshack.us/img911/280/RMVGJT.png[/img]\n[img]http://img538.imageshack.us/img538/5089/sKAe0a.png[/img]\n\n\nPlot\n\nBound by a shared destiny, a teen bursting with scientific curiosity and a former boy-genius inventor \nembark on a mission to unearth the secrets of a place somewhere in time and space that exists in their collective memory.\n\nCast\n\nGeorge Clooney \t... \tFrank Walker\nHugh Laurie \t... \tNix\nBritt Robertson ... \tCasey Newton\nRaffey Cassidy \t... \tAthena\nTim McGraw \t... \tEddie Newton \n\n\n\n\nGreetz\n\nSugarB,iNCOMiNG,jiinx,SiMPLE,CherryBomb\nViSiON,YanKeeS,COPYxRIGHT,THC,\nLKRG,Kingstoner,ACAB,SiMPLE,TiTAN\nUnevano,BigVik,Rapeseed,SAFC,goldadvance,KaN1vE,Pinnz,Wayne,HiGH\nSeeN,jtr,Limey,ICONiK,TED,rkofan\nMr Hive\n\nLOOKING FOR ANYTHING YOU WANT TO LOOK AND SOUND BETTER\n\n\nCOME FIND US WE DONT BITE \n&lt;a class=&quot;__cf_email__&quot; href=&quot;/cdn-cgi/l/email-protection&quot; data-cfemail=&quot;57141a6f173f22243f3a363e3b793a32&quot;&gt;[email&amp;#160;protected]&lt;/a&gt;&lt;script data-cfhash='f9e31' type=&quot;text/javascript&quot;&gt;\n/* &lt;![CDATA[ */!function(){try{var t=&quot;currentScript&quot;in document?document.currentScript:function(){for(var t=document.getElementsByTagName(&quot;script&quot;),e=t.length;e--;)if(t[e].getAttribute(&quot;data-cfhash&quot;))return t[e]}();if(t&amp;&amp;t.previousSibling){var e,r,n,i,c=t.previousSibling,a=c.getAttribute(&quot;data-cfemail&quot;);if(a){for(e=&quot;&quot;,r=parseInt(a.substr(0,2),16),n=2;a.length-n;n+=2)i=parseInt(a.substr(n,2),16)^r,e+=String.fromCharCode(i);e=document.createTextNode(e),c.parentNode.replaceChild(e,c)}t.parentNode.removeChild(t);}}catch(u){}}()/* ]]&gt; */&lt;/script&gt;[/center]","torrent":{"xt":"urn:btih:f995aa4db72920d5c123e80abb7d54ccc8dc33d2","amp;dn":"Tomorrowland.2015.HD-TS.XVID.AC3.HQ.Hive-CM8","amp;tr":["udp%3A%2F%2Ftracker.openbittorrent.com%3A80","udp%3A%2F%2Fopen.demonii.com%3A1337","udp%3A%2F%2Ftracker.coppersurfer.tk%3A6969","udp%3A%2F%2Fexodus.desync.com%3A6969"],"infoHash":"f995aa4db72920d5c123e80abb7d54ccc8dc33d2","infoHashBuffer":{"type":"Buffer","data":[249,149,170,77,183,41,32,213,193,35,232,10,187,125,84,204,200,220,51,210]},"announce":[],"urlList":[]}}